<svg width="72" height="72" viewBox="0 0 72 72" fill="none" xmlns="http://www.w3.org/2000/svg">
<rect width="72" height="72" rx="12" fill="#EDF2FF"/>
<path d="M43.2 28.7993C42.7612 30.1158 41.8583 31.1263 40.5803 31.6929C36.4756 33.5126 33.5133 36.4748 31.6936 40.5795C31.127 41.8575 30.1165 42.7604 28.8 43.1993" stroke="#4979FB" stroke-width="2.7" stroke-linejoin="round"/>
<path d="M20.16 51.8393L18 53.9993M51.84 20.1594L54 17.9994" stroke="#4979FB" stroke-width="2.7" stroke-linecap="round" stroke-linejoin="round"/>
<path d="M46.4187 18.7575L43.6968 21.3731L50.6099 28.3508L53.2695 25.7683C54.0678 24.828 54.3123 24.1196 53.3185 22.815L51.3281 20.7218L49.3103 18.7314C48.0204 17.5744 47.0045 18.1969 46.4187 18.7575Z" stroke="#4979FB" stroke-width="2.7" stroke-linecap="round" stroke-linejoin="round"/>
<path d="M39.6207 21.1616C41.6198 19.0487 42.9889 20.5524 43.692 21.3898L50.5458 28.2711C51.3989 28.955 52.9595 30.2671 50.8968 32.3103C50.564 32.64 50.2377 32.9852 49.8761 33.2828C48.5406 34.3813 47.259 33.4705 46.5799 32.6339L39.6036 25.6576C38.8691 24.9978 37.5999 23.8024 38.6718 22.2044C38.9607 21.8356 39.2987 21.5018 39.6207 21.1616Z" stroke="#4979FB" stroke-width="2.7" stroke-linecap="round" stroke-linejoin="round"/>
<path d="M22.6574 53.3151L20.603 51.2845L18.6519 49.2288C17.4941 48.0708 18.162 46.9131 18.7338 46.3383L21.4015 43.6673L28.3434 50.6392L25.6111 53.3232C24.6555 54.103 24.0003 54.342 22.7151 53.3232M25.602 39.4627C24.8989 38.6253 23.5298 37.1214 21.5307 39.2344C21.2088 39.5746 20.8707 39.9084 20.5818 40.2772C19.5099 41.8752 20.779 43.0706 21.5135 43.7305L28.4899 50.7067C29.169 51.5434 30.4506 52.4542 31.786 51.3556C32.1478 51.0579 32.474 50.7129 32.8068 50.3831C34.8695 48.3399 33.3089 47.0279 32.4558 46.3439L25.602 39.4627Z" stroke="#4979FB" stroke-width="2.7" stroke-linecap="round" stroke-linejoin="round"/>
</svg>
