<svg width="72" height="72" viewBox="0 0 72 72" fill="none" xmlns="http://www.w3.org/2000/svg">
<rect width="72" height="72" rx="12" fill="#F0EDFE"/>
<path d="M30.3455 48.5595C29.9568 49.003 29.726 49.8389 29.726 50.4877C29.726 52.4274 31.1306 53.9998 32.8632 53.9998C34.5959 53.9998 36.0005 52.4273 36.0005 50.4877V28.521C36.0005 26.5693 34.5871 24.9871 32.8436 24.9871C32.2321 24.9871 31.6337 25.1859 31.1213 25.5594C30.6088 25.9329 30.2042 26.465 29.9568 27.091L29.6719 27.8116" stroke="#0005B0" stroke-width="1.56098" stroke-miterlimit="10" stroke-linecap="round" stroke-linejoin="round"/>
<path d="M29.9554 51.9287C29.3771 52.2519 28.7248 52.4336 28.0345 52.4336C25.6562 52.4336 23.7283 50.2753 23.7283 47.6129C23.7283 46.7064 23.9518 45.8584 24.3405 45.134M25.501 33.4636C25.2859 32.9338 25.1749 32.3585 25.1756 31.7766C25.1756 29.5245 26.8065 27.6987 28.8183 27.6987C30.0676 27.6987 31.17 28.4028 31.8262 29.4757" stroke="#0005B0" stroke-width="1.56098" stroke-miterlimit="10" stroke-linecap="round" stroke-linejoin="round"/>
<path d="M26.443 33.4161C23.4448 33.4161 21.0142 36.137 21.0142 39.4935C21.0142 42.8499 23.4448 45.5708 26.443 45.5708M41.6545 48.5595C42.0432 49.003 42.274 49.8389 42.274 50.4877C42.274 52.4274 40.8695 53.9998 39.1368 53.9998C37.4041 53.9998 35.9995 52.4273 35.9995 50.4877V28.521C35.9995 26.5693 37.4129 24.9871 39.1564 24.9871C39.7679 24.9871 40.3662 25.1859 40.8787 25.5594C41.3912 25.9329 41.7958 26.465 42.0432 27.091L42.3281 27.8116" stroke="#0005B0" stroke-width="1.56098" stroke-miterlimit="10" stroke-linecap="round" stroke-linejoin="round"/>
<path d="M42.0433 51.9287C42.6215 52.2519 43.2739 52.4336 43.9641 52.4336C46.3424 52.4336 48.2704 50.2753 48.2704 47.6129C48.2704 46.7064 48.0469 45.8584 47.6582 45.134M46.4977 33.4636C46.7128 32.9338 46.8237 32.3585 46.823 31.7766C46.823 29.5245 45.1921 27.6987 43.1803 27.6987C41.931 27.6987 40.8286 28.4028 40.1724 29.4757" stroke="#0005B0" stroke-width="1.56098" stroke-miterlimit="10" stroke-linecap="round" stroke-linejoin="round"/>
<path d="M49.8511 43.2124C48.8581 44.6476 47.3037 45.5715 45.5566 45.5715M45.5567 33.4166C47.3026 33.4166 48.8561 34.3393 49.8492 35.7729M45.4971 40.6127C44.3933 40.6127 43.4985 39.611 43.4985 38.3753M32.3088 45.4918C31.9496 44.8966 31.3414 44.5053 30.6515 44.5053M39.7114 45.4918C40.0706 44.8966 40.6788 44.5053 41.3687 44.5053M26.5032 40.6127C27.607 40.6127 28.5019 39.611 28.5019 38.3753M41.5625 33.4166C41.5625 34.5732 40.7249 35.5109 39.6916 35.5109M37.8809 40.4696C36.8477 40.4696 36.0002 39.5319 36.0002 38.3753C36.0002 39.5319 35.1725 40.4696 34.1393 40.4696M30.4379 33.4166C30.4379 34.5732 31.2756 35.5109 32.3088 35.5109M47.3996 18.0003L45.036 20.839L47.3053 21.203L44.9677 24.4934M24.6008 18.0003L26.9643 20.839L24.695 21.203L27.0327 24.4934M55.2002 25.7894L52.0525 27.4677L54.0379 28.7509L50.7743 30.8312M16.8002 25.7894L19.9478 27.4677L17.9624 28.7509L21.226 30.8312" stroke="#0005B0" stroke-width="1.56098" stroke-miterlimit="10" stroke-linecap="round" stroke-linejoin="round"/>
</svg>
