<svg width="72" height="72" viewBox="0 0 72 72" fill="none" xmlns="http://www.w3.org/2000/svg">
<rect width="72" height="72" rx="12" fill="#FFEEE9"/>
<path d="M28.5948 32.4C29.8292 34.9143 31.148 37.2688 30.8434 40.1656C30.3565 44.7964 24.7413 46.5394 21.1504 48.6727C18.7979 50.0704 19.6775 54 22.5645 54C26.0649 54 29.189 53.7207 32.3471 52.2362L38.54 48.4251C39.3997 48.021 40.4844 48.1932 41.4 48.6" stroke="#FF5722" stroke-width="3.6" stroke-linecap="round" stroke-linejoin="round"/>
<path d="M43.2189 32.4C41.9583 34.9143 40.6116 37.2688 40.9226 40.1656C41.42 44.7964 47.154 46.5394 50.821 48.6727C53.2233 50.0704 52.3251 54 49.3769 54C45.8024 54 42.6121 53.7207 39.387 52.2362L33.0629 48.4251C32.3247 48.0852 31.424 48.1531 30.6 48.4251" stroke="#FF5722" stroke-width="3.6" stroke-linecap="round" stroke-linejoin="round"/>
<path d="M32.3999 21.6C32.3999 23.5882 34.0116 25.2 35.9999 25.2C37.9882 25.2 39.5999 23.5882 39.5999 21.6C39.5999 19.6118 37.9882 18 35.9999 18C34.0116 18 32.3999 19.6118 32.3999 21.6Z" stroke="#FF5722" stroke-width="3.6"/>
<path d="M19.8 43.2C24.2026 43.2 26.1787 38.3309 26.8081 34.9724C26.9724 34.0958 27.2385 33.2217 27.8213 32.5466C29.8018 30.2522 32.7312 28.8 36 28.8C39.2688 28.8 42.1983 30.2522 44.1787 32.5466C44.7615 33.2217 45.0278 34.0958 45.1921 34.9724C45.8214 38.3309 47.7974 43.2 52.2001 43.2" stroke="#FF5722" stroke-width="3.6" stroke-linecap="round" stroke-linejoin="round"/>
</svg>
