<svg width="280" height="65" viewBox="0 0 280 65" fill="none" xmlns="http://www.w3.org/2000/svg">
<path d="M90.6662 16.7439C83.678 12.7526 77.3663 7.28745 72.4129 0.940108C72.0117 0.425045 71.4354 0.0986686 70.7895 0.0187744C70.1435 -0.0611199 69.5044 0.115667 68.9927 0.516838C67.9354 1.34298 67.7467 2.87797 68.5728 3.93699C72.2667 8.67115 76.6252 12.9242 81.531 16.5756L81.5752 16.6079C81.8761 16.8425 82.0614 17.1807 82.0954 17.5581C82.1481 18.1599 81.8098 18.7191 81.2505 18.9486L81.2114 18.9656C75.1038 21.4576 69.5129 25.0155 64.5985 29.5422C59.6451 34.1047 55.6385 39.41 52.6892 45.3137C52.0908 46.5138 52.5787 47.9808 53.7805 48.5826C54.1188 48.7526 54.4911 48.8393 54.8684 48.8393C54.9415 48.8393 55.0146 48.8359 55.0877 48.8291C55.936 48.7526 56.6703 48.2528 57.0528 47.4913C63.5769 34.4311 75.9044 24.6143 90.0287 21.2298C91.0078 20.9936 91.7303 20.198 91.8714 19.2053C92.0159 18.2092 91.5433 17.2436 90.6679 16.7439H90.6662Z" fill="#1FCCB7"/>
<path d="M65.245 15.9551C62.6833 13.3951 60.0348 10.7467 56.8102 8.69327C54.1448 6.99679 49.9767 5.06063 45.251 5.4737L45.2085 5.4771C39.8845 5.95987 35.7521 9.22363 33.221 11.8771C30.848 14.3658 28.9118 17.2845 27.3564 19.6303C25.286 22.753 23.6269 25.1073 21.9746 27.261C20.8782 28.6923 19.7206 30.1355 18.5323 31.5481C17.3985 32.8978 16.2035 34.2645 14.9779 35.6108C12.8275 37.972 10.6891 40.2379 8.17838 41.982C6.45981 43.177 4.69873 44.0065 2.94276 44.4519C1.64065 44.7817 0.84851 46.1093 1.17829 47.4131C1.45537 48.5078 2.426 49.2523 3.53432 49.2523C3.60911 49.2523 3.68391 49.2489 3.7587 49.2421C3.88619 49.2302 4.01538 49.2082 4.13947 49.1776C6.46321 48.5894 8.75804 47.5151 10.9594 45.9852C13.8849 43.9538 16.3293 41.3683 18.5816 38.8933C19.8497 37.4994 21.0907 36.0834 22.2653 34.6827C23.5011 33.2123 24.7046 31.713 25.8435 30.2256C27.5655 27.9784 29.2858 25.5408 31.4191 22.3229C33.2618 19.5436 34.8257 17.2556 36.7482 15.2395C38.7014 13.1911 41.8326 10.677 45.6488 10.3303L45.6046 9.84409L45.6794 10.3286C49.0434 10.0345 52.1661 11.5134 54.1941 12.8053C56.9683 14.5714 59.4229 17.0261 61.801 19.4025C62.7513 20.3527 64.2981 20.3527 65.2467 19.4025C65.7073 18.9418 65.9606 18.3299 65.9606 17.6788C65.9606 17.0278 65.7073 16.4158 65.2467 15.9551H65.245Z" fill="#1FCCB7"/>
<path d="M60.0873 60.8404L49.4138 50.2043C49.1469 49.9374 48.8664 49.6671 48.574 49.3832C46.9982 47.8567 45.2117 46.1263 45.1148 44.5403C45.0349 43.2178 46.2843 41.5043 47.3892 39.9914L47.4045 39.971C47.6034 39.6973 47.7989 39.4287 47.9859 39.1653C50.1787 36.0749 52.6146 33.1188 55.2273 30.3803C56.1555 29.408 56.1181 27.8628 55.1457 26.9346C54.6749 26.4859 54.0527 26.2445 53.4051 26.2615C52.754 26.2768 52.1489 26.5454 51.6984 27.0162C48.9208 29.9264 46.3336 33.0661 44.0081 36.3452C43.8314 36.595 43.6444 36.85 43.4489 37.1169C41.9394 39.1857 40.0593 41.761 40.2463 44.8344C40.4571 48.3106 43.0766 50.8451 45.1811 52.8833L45.2066 52.9071C45.4683 53.1604 45.7233 53.4085 45.9698 53.6533L56.6433 64.2895C57.1023 64.7484 57.7194 65 58.3619 65C58.435 65 58.5098 64.9966 58.5846 64.9898C59.1524 64.9388 59.6878 64.6872 60.0907 64.2827C60.5497 63.822 60.8029 63.2083 60.8012 62.5573C60.8012 61.9062 60.5463 61.2943 60.0839 60.8353L60.0873 60.8404Z" fill="#1FCCB7"/>
<path d="M112.293 21.2833H101.04V30.3863H114.213V32.5813C114.213 34.937 112.347 36.2214 110.694 36.2214H101.307V51.8569H98.2661C95.5996 51.8569 94 50.4641 94 47.5736V20.8551C94 16.3027 95.8136 15.179 100.08 15.179H116.453V17.4823C116.453 19.1949 115.174 21.2833 112.293 21.2833Z" fill="#F4F4F4"/>
<path d="M130.585 22.4069C123.012 22.4069 120.131 26.2621 120.131 29.4758V31.7774H120.397C121.464 30.4387 124.343 28.457 129.516 28.457C133.782 28.457 135.702 29.689 135.702 33.7574V34.1313H133.196C122.636 34.1313 118.902 38.0406 118.902 43.1802C118.902 48.3198 123.595 52.3357 130.421 52.3357H131.861C138.261 52.3357 142.741 48.1049 142.741 42.0006V35.3616C142.741 25.4023 136.981 22.4034 130.581 22.4034L130.585 22.4069ZM135.758 42.0583C135.758 45.0029 134.264 46.5024 131.171 46.5024C128.078 46.5024 126.211 45.1637 126.211 42.9146C126.211 40.6655 127.758 39.2727 133.197 39.2727H135.758V42.0565V42.0583Z" fill="#F4F4F4"/>
<path d="M198.366 29.9564C197.299 29.5282 196.072 29.1001 194.206 29.1001C191.005 29.1001 189.246 30.8669 189.246 35.2585V51.8569H187.272C184.073 51.8569 182.045 50.2508 182.045 47.252V33.9723C182.045 28.1896 185.086 22.6743 192.657 22.6743C197.083 22.6743 198.63 25.1908 198.63 27.3857V29.9564H198.364H198.366Z" fill="#F4F4F4"/>
<path d="M207.058 20.9075C204.764 20.9075 202.898 18.98 202.898 16.6767C202.898 14.3734 204.764 12.5 207.058 12.5C209.352 12.5 211.272 14.3751 211.272 16.6767C211.272 18.9782 209.352 20.9075 207.058 20.9075ZM212.125 52.1243C206.578 52.1243 203.539 48.9647 203.539 43.1278V23.5831H205.565C208.764 23.5831 210.684 25.2974 210.684 28.9376V42.4323C210.684 45.3245 211.911 46.2332 215.058 46.2332H216.391V47.7851C216.391 50.8905 215.164 52.1225 212.125 52.1225V52.1243Z" fill="#F4F4F4"/>
<path d="M233.297 22.3004C241.937 22.3004 246.896 29.2609 246.896 36.9187C246.896 45.5936 241.935 52.5 232.656 52.5C224.016 52.5 219.058 45.5919 219.058 37.9358C219.058 29.2609 224.018 22.3004 233.297 22.3004ZM232.656 28.7261C228.551 28.7261 226.471 32.1531 226.471 36.9187C226.471 42.649 228.55 46.076 233.297 46.076C237.457 46.076 239.483 42.649 239.483 37.9376C239.483 32.1549 237.349 28.7279 232.656 28.7279V28.7261Z" fill="#F4F4F4"/>
<path d="M163.073 22.3021H163.058C159.382 22.4454 157.041 24.6683 155.65 26.6902V18.2809C155.65 14.9046 153.728 13.3004 150.952 13.3004H148.5V35.7828C148.428 36.4836 148.394 37.2001 148.394 37.9306C148.394 45.4713 153.203 52.2798 161.597 52.4878C161.728 52.493 161.86 52.4983 161.996 52.4983C162.431 52.4983 162.856 52.479 163.272 52.4528C163.362 52.4476 163.458 52.4371 163.548 52.4266C163.602 52.4249 163.656 52.4214 163.709 52.4144C163.75 52.4091 163.792 52.4039 163.832 52.3969C164.01 52.3759 164.185 52.3567 164.363 52.3252H164.368C164.398 52.32 164.434 52.3165 164.464 52.3165C164.601 52.2903 164.742 52.2641 164.875 52.2449C170.34 51.2959 173.925 47.6191 175.428 42.6577V42.6525C175.428 42.6525 175.428 42.6385 175.438 42.628C175.964 40.8612 176.232 38.9371 176.232 36.9152C176.232 29.385 171.443 22.5363 163.073 22.3021ZM168.93 37.7942H168.925C168.93 37.8694 168.93 37.9568 168.93 38.0372C168.93 38.1542 168.93 38.2713 168.925 38.3884C168.92 38.53 168.914 38.668 168.904 38.8043C168.606 43.0282 166.149 46.0445 162.795 46.0445C162.149 46.0445 161.536 45.9798 160.955 45.8523C160.889 45.8365 160.812 45.8208 160.743 45.7963C160.666 45.7806 160.591 45.7561 160.509 45.7299C160.414 45.7055 160.318 45.674 160.222 45.6391C160.217 45.6443 160.217 45.6391 160.212 45.6391C160.111 45.6041 160.008 45.5622 159.907 45.522C159.899 45.522 159.888 45.5115 159.878 45.5115C159.796 45.4765 159.716 45.4416 159.639 45.4049C159.251 45.2231 158.891 44.9995 158.558 44.7356C158.487 44.6796 158.416 44.6237 158.346 44.5626C158.309 44.5363 158.28 44.5066 158.248 44.4804C158.208 44.4455 158.174 44.4105 158.137 44.3738C158.067 44.3092 157.996 44.2375 157.925 44.1659C157.86 44.0907 157.794 44.0138 157.728 43.9387C157.678 43.8828 157.627 43.8268 157.587 43.7709C157.531 43.6993 157.47 43.6224 157.42 43.5472C157.389 43.507 157.359 43.4651 157.333 43.4249C157.293 43.369 157.253 43.3078 157.213 43.2519C157.157 43.161 157.101 43.0754 157.056 42.988C157.025 42.9373 156.995 42.8919 156.969 42.836C156.858 42.6385 156.757 42.4305 156.661 42.2121C156.637 42.1509 156.611 42.1002 156.59 42.0391C156.504 41.8503 156.433 41.6529 156.369 41.4449C156.343 41.3733 156.316 41.3034 156.297 41.2265C156.271 41.1601 156.252 41.0936 156.236 41.0237C156.202 40.9119 156.175 40.8053 156.146 40.6935V40.6882C156.12 40.5973 156.095 40.5012 156.075 40.4034C156.059 40.3335 156.045 40.2618 156.029 40.1902C156.014 40.129 156.003 40.0643 155.989 40.0032C155.984 39.9577 155.974 39.9105 155.963 39.8651C155.947 39.769 155.928 39.6729 155.913 39.5768C155.867 39.2657 155.822 38.9511 155.796 38.6261C155.782 38.5107 155.772 38.4041 155.761 38.2871C155.761 38.2311 155.751 38.1752 155.751 38.1245C155.746 37.9865 155.735 37.8502 155.726 37.7121C155.721 37.6265 155.721 37.5461 155.716 37.464C155.711 37.3836 155.711 37.2962 155.706 37.2106C155.7 37.0673 155.7 36.9205 155.7 36.7737V34.224L156.595 34.5647C160.328 35.9908 164.448 35.9768 168.166 34.5246L168.93 34.224V37.7942Z" fill="#F4F4F4"/>
<path d="M168.93 37.7121H168.925C168.925 37.7383 168.93 37.7628 168.925 37.7942C168.93 37.8694 168.93 37.9567 168.93 38.0371C168.93 38.1542 168.93 38.2713 168.925 38.3884C168.92 38.5299 168.914 38.668 168.904 38.8043C168.606 43.0282 166.149 46.0445 162.795 46.0445C162.149 46.0445 161.536 45.9798 160.955 45.8522C160.889 45.8365 160.812 45.8208 160.743 45.7963C160.666 45.7806 160.591 45.7561 160.509 45.7299C160.414 45.7054 160.318 45.674 160.222 45.639C160.217 45.6443 160.217 45.639 160.212 45.639C160.111 45.6041 160.008 45.5621 159.907 45.5219C159.898 45.5219 159.888 45.5115 159.877 45.5115C159.796 45.4765 159.716 45.4416 159.639 45.4049C159.251 45.2231 158.891 44.9994 158.558 44.7355C158.487 44.6796 158.415 44.6237 158.346 44.5625C158.309 44.5363 158.28 44.5066 158.248 44.4804C158.208 44.4454 158.173 44.4105 158.137 44.3738C158.067 44.3091 157.996 44.2375 157.925 44.1658C157.86 44.0907 157.794 44.0138 157.728 43.9386C157.677 43.8827 157.627 43.8268 157.587 43.7709C157.531 43.6992 157.47 43.6223 157.42 43.5472C157.389 43.507 157.359 43.4651 157.333 43.4249C157.293 43.3689 157.253 43.3078 157.213 43.2519C157.157 43.161 157.101 43.0753 157.056 42.988C157.025 42.9373 156.995 42.8919 156.969 42.8359C156.858 42.6385 156.757 42.4305 156.661 42.2121C156.637 42.1509 156.611 42.1002 156.59 42.039C156.504 41.8503 156.433 41.6528 156.369 41.4449C156.342 41.3732 156.316 41.3033 156.297 41.2264C156.271 41.16 156.252 41.0936 156.236 41.0237C156.201 40.9119 156.175 40.8053 156.146 40.6934V40.6882C156.12 40.5973 156.095 40.5012 156.074 40.4033C156.059 40.3334 156.045 40.2618 156.029 40.1901C156.013 40.129 156.003 40.0643 155.989 40.0031C155.984 39.9577 155.973 39.9105 155.963 39.8651C155.947 39.769 155.928 39.6728 155.913 39.5767C155.867 39.2657 155.822 38.9511 155.796 38.6261C155.782 38.5107 155.772 38.4041 155.761 38.287C155.761 38.2311 155.751 38.1752 155.751 38.1245C155.745 37.9864 155.735 37.8501 155.726 37.7121C155.721 37.6264 155.721 37.5461 155.716 37.4639C155.711 37.3835 155.711 37.2962 155.705 37.2105C155.7 37.0672 155.7 36.9204 155.7 36.7736V34.2239L156.595 34.5647C160.328 35.9907 164.448 35.9767 168.166 34.5245L168.93 34.2239V37.7121Z" fill="#1FCCB7"/>
<path d="M265.401 22.3004C274.041 22.3004 279 29.2609 279 36.9187C279 45.5936 274.04 52.5 264.761 52.5C256.121 52.5 251.162 45.5919 251.162 37.9358C251.162 29.2609 256.123 22.3004 265.401 22.3004ZM264.761 28.7261C260.655 28.7261 258.575 32.1531 258.575 36.9187C258.575 42.649 260.655 46.076 265.401 46.076C269.561 46.076 271.587 42.649 271.587 37.9376C271.587 32.1549 269.453 28.7279 264.761 28.7279V28.7261Z" fill="#F4F4F4"/>
</svg>
